PathFileType	4	(x/y/z)	S10_PSF_T11
DataRate	CameraRate	NumFrames	NumMarkers	Units	OrigDataRate	OrigDataStartFrame	OrigNumFrames
240	240	8	51	mm	240	1	460
Frame#	Time	Sternum			R.Acromium			L.Acromium			Top.Head			R.ASIS			L.ASIS			R.PSIS			L.PSIS			R.Great.Tro			L.Great.Tro			R.Iliac.Crest			L.Iliac.Crest			V.Sacral			R.Thigh.Upper.Post			R.Thigh.Lower.Ant			R.Thigh.Lower.Post			R.Thigh.Upper.Ant			R.Knee.Lat			R.Knee.Med			R.Shank.Upper.Post			R.Shank.Lower.Ant			R.Shank.Lower.Post			R.Shank.Upper.Ant			R.Ankle.Lat			R.Ankle.Med			R.Heel.Upper			R.Heel.Med			R.Heel.Lat			R.Toe.Lat			R.Toe.Med			R.Toe.Tip			L.Thigh.Upper.Post			L.Thigh.Lower.Ant			L.Thigh.Lower.Post			L.Thigh.Upper.Ant			L.Knee.Lat			L.Knee.Med			L.Shank.Upper.Post			L.Shank.Lower.Ant			L.Shank.Lower.Post			L.Shank.Upper.Ant			L.Ankle.Lat			L.Ankle.Med			L.Heel.Upper			L.Heel.Med			L.Heel.Lat			L.Toe.Lat			L.Toe.Med			L.Toe.Tip			Cervical.Spine			Back			
		X1	Y1	Z1	X2	Y2	Z2	X3	Y3	Z3	X4	Y4	Z4	X5	Y5	Z5	X6	Y6	Z6	X7	Y7	Z7	X8	Y8	Z8	X9	Y9	Z9	X10	Y10	Z10	X11	Y11	Z11	X12	Y12	Z12	X13	Y13	Z13	X14	Y14	Z14	X15	Y15	Z15	X16	Y16	Z16	X17	Y17	Z17	X18	Y18	Z18	X19	Y19	Z19	X20	Y20	Z20	X21	Y21	Z21	X22	Y22	Z22	X23	Y23	Z23	X24	Y24	Z24	X25	Y25	Z25	X26	Y26	Z26	X27	Y27	Z27	X28	Y28	Z28	X29	Y29	Z29	X30	Y30	Z30	X31	Y31	Z31	X32	Y32	Z32	X33	Y33	Z33	X34	Y34	Z34	X35	Y35	Z35	X36	Y36	Z36	X37	Y37	Z37	X38	Y38	Z38	X39	Y39	Z39	X40	Y40	Z40	X41	Y41	Z41	X42	Y42	Z42	X43	Y43	Z43	X44	Y44	Z44	X45	Y45	Z45	X46	Y46	Z46	X47	Y47	Z47	X48	Y48	Z48	X49	Y49	Z49	X50	Y50	Z50	X51	Y51	Z51	

1	0	NaN	NaN	NaN	-1565.5	1402.8	484.17	-1615.3	1416.8	181.16	-1631.2	1715.6	351.29	NaN	NaN	NaN	NaN	NaN	NaN	NaN	NaN	NaN	NaN	NaN	NaN	-1610.3	897.07	513.57	NaN	NaN	NaN	-1621.7	1051.9	489.24	NaN	NaN	NaN	-1748	968.94	317.2	NaN	NaN	NaN	-1659.4	603.8	466.43	NaN	NaN	NaN	-1621.8	683.82	482.49	-1776.1	511.2	441.22	-1765.7	517.5	311.48	-1921.6	328.37	430.81	-1875.6	249.57	411.82	-1952.6	260.92	420.81	-1851.1	313.67	424.73	NaN	NaN	NaN	-1958.9	161.06	321.26	-2051.5	115.57	349.07	-2045.5	87.527	320.86	-2053.6	88.528	381.46	-1890.9	45.73	434.91	NaN	NaN	NaN	-1797.1	54.151	372.39	-1530.8	657.82	153.27	-1431	608.3	175.62	-1498.1	570.11	176.22	NaN	NaN	NaN	-1431.3	505.16	188.89	NaN	NaN	NaN	-1403.1	283.16	197.45	-1302.4	234.83	209.9	-1368	214.3	210.16	-1340.6	300.14	199.05	-1285.9	114.23	223.64	-1276.8	134.21	310.05	-1330.9	61.017	272.52	NaN	NaN	NaN	-1311	37.428	241.67	-1145.2	96.139	204.54	NaN	NaN	NaN	NaN	NaN	NaN	-1668.6	1468	355.48	-1754.6	1260.3	355.89
2	0.0041667	NaN	NaN	NaN	-1560.4	1402.4	483.59	-1609.9	1416.1	180.6	-1626.3	1714.9	350.88	NaN	NaN	NaN	NaN	NaN	NaN	NaN	NaN	NaN	NaN	NaN	NaN	-1604.2	896.3	513.27	NaN	NaN	NaN	-1615.7	1051.2	488.93	NaN	NaN	NaN	-1742.2	968.26	317.04	NaN	NaN	NaN	-1653.3	603.01	465.84	NaN	NaN	NaN	-1615.9	683.08	482.14	-1770	510.21	441.07	-1759.7	516.51	311.28	-1917	329	431.2	-1872.5	249.93	412.04	-1948.4	261.74	421.49	-1846.6	313.8	424.29	NaN	NaN	NaN	-1957.1	162.32	321.68	-2050.1	118.04	349.54	-2044.5	90.101	321.23	-2052.6	90.935	381.84	-1890.6	45.779	435.02	NaN	NaN	NaN	-1796.8	54.067	372.44	-1524.4	657.51	153.31	-1424.8	608.1	176.23	-1491.9	569.85	176.56	NaN	NaN	NaN	-1425.3	504.9	189.41	NaN	NaN	NaN	-1398.9	282.86	197.72	-1298.7	233.45	210.44	-1364.4	213.64	210.28	-1336.2	299.32	199.88	-1283.6	113.31	223.89	-1274.4	132.71	310.54	-1329	61.668	272.79	NaN	NaN	NaN	-1310	37.761	241.9	-1143.4	92.867	204.97	NaN	NaN	NaN	NaN	NaN	NaN	-1663.4	1467.4	354.85	-1749.2	1259.5	355.5
3	0.0083333	NaN	NaN	NaN	-1555	1401.9	482.99	-1604.3	1415.4	180.01	-1621.2	1714.3	350.46	NaN	NaN	NaN	NaN	NaN	NaN	NaN	NaN	NaN	NaN	NaN	NaN	-1597.8	895.52	512.95	NaN	NaN	NaN	-1609.5	1050.5	488.61	NaN	NaN	NaN	-1736.2	967.57	316.86	NaN	NaN	NaN	-1646.9	602.18	465.26	NaN	NaN	NaN	-1609.9	682.3	481.77	-1763.7	509.15	440.91	-1753.3	515.46	311.06	-1912.2	329.66	431.6	-1869.2	250.32	412.26	-1943.8	262.55	422.25	-1842	313.92	423.88	NaN	NaN	NaN	-1955.1	163.65	322.11	-2048.5	120.67	350.02	-2043.3	92.845	321.6	-2051.4	93.516	382.22	-1890.3	45.842	435.13	NaN	NaN	NaN	-1796.6	53.987	372.48	-1517.9	657.22	153.36	-1418.4	607.91	176.87	-1485.4	569.61	176.91	NaN	NaN	NaN	-1418.9	504.66	189.94	-1413.6	505.41	319.54	-1394.5	282.58	197.97	-1294.9	232.09	211.01	-1360.6	212.99	210.38	-1331.6	298.49	200.71	-1281.2	112.39	224.14	-1271.8	131.2	311.04	-1327.1	62.36	273.06	NaN	NaN	NaN	-1309.1	38.126	242.14	-1141.6	89.485	205.38	NaN	NaN	NaN	NaN	NaN	NaN	-1657.9	1466.7	354.2	-1743.5	1258.8	355.08
4	0.0125	NaN	NaN	NaN	-1549.5	1401.5	482.36	-1598.5	1414.7	179.4	-1616	1713.7	350.03	NaN	NaN	NaN	NaN	NaN	NaN	NaN	NaN	NaN	NaN	NaN	NaN	-1591.3	894.71	512.61	NaN	NaN	NaN	-1603	1049.8	488.26	NaN	NaN	NaN	-1730	966.87	316.65	NaN	NaN	NaN	-1640.3	601.31	464.69	NaN	NaN	NaN	-1603.5	681.5	481.4	-1757	508.05	440.74	-1746.6	514.34	310.84	-1907.2	330.36	432	-1865.7	250.74	412.49	-1938.8	263.34	423.11	-1837.1	314.05	423.51	NaN	NaN	NaN	-1953	165.06	322.56	-2046.8	123.46	350.5	-2042	95.755	321.97	-2050.2	96.275	382.6	-1889.9	45.924	435.24	NaN	NaN	NaN	-1796.3	53.912	372.49	-1511.1	656.95	153.4	-1411.9	607.74	177.51	-1478.8	569.38	177.24	NaN	NaN	NaN	-1412.4	504.45	190.47	-1407.6	505.67	319.85	-1389.8	282.34	198.21	-1290.9	230.76	211.62	-1356.6	212.36	210.48	-1326.8	297.68	201.54	-1278.6	111.48	224.37	-1269.1	129.68	311.54	-1325.1	63.09	273.33	NaN	NaN	NaN	-1308	38.525	242.38	-1139.8	86.025	205.75	NaN	NaN	NaN	NaN	NaN	NaN	-1652.3	1466.1	353.51	-1737.7	1258	354.65
5	0.016667	NaN	NaN	NaN	-1543.8	1401.1	481.71	-1592.5	1414	178.77	-1610.6	1713	349.58	NaN	NaN	NaN	NaN	NaN	NaN	NaN	NaN	NaN	NaN	NaN	NaN	-1584.6	893.9	512.24	NaN	NaN	NaN	-1596.4	1049.1	487.9	NaN	NaN	NaN	-1723.7	966.18	316.41	NaN	NaN	NaN	-1633.5	600.4	464.15	NaN	NaN	NaN	-1597	680.67	481.02	-1750	506.88	440.57	-1739.6	513.14	310.61	-1901.9	331.08	432.41	-1862.1	251.19	412.72	-1933.3	264.11	424.05	-1832.1	314.18	423.18	NaN	NaN	NaN	-1950.8	166.55	323.01	-2044.9	126.42	350.97	-2040.6	98.833	322.34	-2048.8	99.214	382.98	-1889.5	46.031	435.35	NaN	NaN	NaN	-1796	53.845	372.49	-1504.3	656.72	153.45	-1405.1	607.59	178.16	-1471.9	569.2	177.56	NaN	NaN	NaN	-1405.7	504.27	190.99	-1401.4	505.93	320.18	-1385.1	282.13	198.43	-1286.8	229.47	212.27	-1352.5	211.78	210.56	-1321.9	296.9	202.36	-1276	110.59	224.58	-1266.4	128.19	312.02	-1323.2	63.856	273.6	NaN	NaN	NaN	-1307	38.959	242.61	-1137.9	82.521	206.08	NaN	NaN	NaN	-1072.2	131.98	266.66	-1646.5	1465.4	352.81	-1731.6	1257.2	354.19
6	0.020833	NaN	NaN	NaN	-1538	1400.8	481.04	-1586.4	1413.3	178.11	-1605.1	1712.4	349.12	NaN	NaN	NaN	NaN	NaN	NaN	NaN	NaN	NaN	NaN	NaN	NaN	-1577.7	893.09	511.85	NaN	NaN	NaN	-1589.7	1048.5	487.51	NaN	NaN	NaN	-1717.1	965.51	316.14	NaN	NaN	NaN	-1626.4	599.45	463.64	NaN	NaN	NaN	-1590.3	679.82	480.65	-1742.8	505.67	440.4	-1732.4	511.87	310.39	-1896.4	331.81	432.83	-1858.3	251.66	412.96	-1927.3	264.84	425.08	-1826.9	314.31	422.91	NaN	NaN	NaN	-1948.4	168.1	323.47	-2042.9	129.54	351.43	-2039.1	102.08	322.69	-2047.2	102.34	383.34	-1889.1	46.166	435.45	NaN	NaN	NaN	-1795.8	53.787	372.47	-1497.3	656.53	153.5	-1398.3	607.48	178.82	-1465	569.05	177.87	NaN	NaN	NaN	-1398.9	504.15	191.5	-1395.1	506.18	320.53	-1380.1	281.97	198.63	-1282.6	228.23	212.94	-1348.3	211.26	210.63	-1316.8	296.17	203.17	-1273.4	109.74	224.78	-1263.6	126.74	312.49	-1321.2	64.651	273.86	NaN	NaN	NaN	-1306	39.424	242.83	-1136.1	79.005	206.35	NaN	NaN	NaN	-1069.5	127.38	266.5	-1640.6	1464.8	352.08	-1725.5	1256.5	353.7
7	0.025	NaN	NaN	NaN	-1532.1	1400.4	480.36	-1580.2	1412.6	177.44	-1599.5	1711.8	348.66	NaN	NaN	NaN	NaN	NaN	NaN	NaN	NaN	NaN	NaN	NaN	NaN	-1570.8	892.28	511.44	NaN	NaN	NaN	-1582.9	1047.8	487.1	NaN	NaN	NaN	-1710.5	964.86	315.83	NaN	NaN	NaN	-1619.2	598.48	463.17	NaN	NaN	NaN	-1583.5	678.95	480.28	-1735.3	504.4	440.23	-1724.9	510.53	310.16	-1890.6	332.56	433.25	-1854.4	252.16	413.22	-1920.9	265.54	426.2	-1821.5	314.44	422.71	NaN	NaN	NaN	-1945.8	169.73	323.93	-2040.6	132.83	351.87	-2037.4	105.49	323.02	-2045.5	105.65	383.68	-1888.7	46.338	435.55	NaN	NaN	NaN	-1795.5	53.739	372.43	-1490.2	656.39	153.55	-1391.4	607.41	179.47	-1458	568.94	178.15	NaN	NaN	NaN	-1391.9	504.08	191.99	-1388.7	506.43	320.9	-1375.1	281.86	198.8	-1278.3	227.07	213.64	-1343.9	210.79	210.68	-1311.7	295.47	203.94	-1270.7	108.94	224.95	-1260.8	125.35	312.94	-1319.2	65.466	274.11	NaN	NaN	NaN	-1304.9	39.918	243.05	-1134.4	75.513	206.57	NaN	NaN	NaN	-1066.8	122.68	266.34	-1634.5	1464.2	351.34	-1719.2	1255.8	353.2
8	0.029167	NaN	NaN	NaN	-1526.1	1400	479.68	-1573.9	1411.9	176.75	-1593.8	1711.2	348.19	NaN	NaN	NaN	NaN	NaN	NaN	NaN	NaN	NaN	NaN	NaN	NaN	-1563.8	891.48	511	NaN	NaN	NaN	-1576	1047.2	486.67	NaN	NaN	NaN	-1703.8	964.23	315.49	NaN	NaN	NaN	-1611.8	597.47	462.75	NaN	NaN	NaN	-1576.5	678.07	479.92	-1727.6	503.08	440.07	-1717.1	509.11	309.94	-1884.6	333.33	433.66	-1850.3	252.68	413.48	-1914	266.21	427.4	-1815.9	314.58	422.56	NaN	NaN	NaN	-1943	171.43	324.39	-2038.1	136.28	352.28	-2035.5	109.08	323.33	-2043.7	109.17	384.01	-1888.2	46.552	435.64	-1850.9	50.013	329.76	-1795.2	53.7	372.38	-1483.1	656.31	153.59	-1384.4	607.39	180.12	-1450.9	568.89	178.4	NaN	NaN	NaN	-1384.9	504.08	192.46	-1382.2	506.68	321.3	-1370	281.82	198.93	-1274	225.98	214.34	-1339.5	210.41	210.71	-1306.4	294.83	204.69	-1268	108.19	225.1	-1257.9	124.01	313.37	-1317.3	66.292	274.36	NaN	NaN	NaN	-1303.9	40.434	243.26	-1132.7	72.079	206.73	NaN	NaN	NaN	-1064.1	117.92	266.17	-1628.4	1463.6	350.59	-1712.9	1255	352.67
